<?xml version="1.0" encoding="UTF-8"?>
<svg width="16px" height="16px" viewBox="0 0 16 16" version="1.1" xmlns="http://www.w3.org/2000/svg" xmlns:xlink="http://www.w3.org/1999/xlink">
    <!-- Generator: Sketch 43.1 (39012) - http://www.bohemiancoding.com/sketch -->
    <title>icon_management</title>
    <desc>Created with Sketch.</desc>
    <defs></defs>
    <g id="Symbols" stroke="none" stroke-width="1" fill="none" fill-rule="evenodd">
        <g id="icon_management">
            <rect id="Rectangle-2" fill="#D8D8D8" opacity="0" x="0" y="0" width="16" height="16"></rect>
            <path d="M10,10.5 L10,7 L14,7 L14,14 L16,14 L16,15 L0,15 L0,14 L2,14 L2,6.99582624 C2,4.78899235 3.79535615,3 6,3 L10,3 L10,10.5 Z M4,6.5 C4,6.76806641 4.21959471,7 4.49047852,7 L7.50952148,7 C7.78494263,7 8,6.77614237 8,6.5 C8,6.23193359 7.78040529,6 7.50952148,6 L4.49047852,6 C4.21505737,6 4,6.22385763 4,6.5 Z M4,9.5 C4,9.76806641 4.21959471,10 4.49047852,10 L7.50952148,10 C7.78494263,10 8,9.77614237 8,9.5 C8,9.23193359 7.78040529,9 7.50952148,9 L4.49047852,9 C4.21505737,9 4,9.22385763 4,9.5 Z M4,12.5 C4,12.7680664 4.21959471,13 4.49047852,13 L7.50952148,13 C7.78494263,13 8,12.7761424 8,12.5 C8,12.2319336 7.78040529,12 7.50952148,12 L4.49047852,12 C4.21505737,12 4,12.2238576 4,12.5 Z M11.5,9 C11.2319336,9 11,9.21959471 11,9.49047852 L11,12.5095215 C11,12.7849426 11.2238576,13 11.5,13 C11.7680664,13 12,12.7804053 12,12.5095215 L12,9.49047852 C12,9.21505737 11.7761424,9 11.5,9 Z" id="Combined-Shape" fill="#FFE48D"></path>
        </g>
    </g>
</svg>