<?xml version="1.0" encoding="UTF-8"?>
<svg width="40px" height="40px" viewBox="0 0 40 40" version="1.1" xmlns="http://www.w3.org/2000/svg" xmlns:xlink="http://www.w3.org/1999/xlink">
    <!-- Generator: Sketch 43.1 (39012) - http://www.bohemiancoding.com/sketch -->
    <title>icon_delete</title>
    <desc>Created with Sketch.</desc>
    <defs></defs>
    <g id="Symbols" stroke="none" stroke-width="1" fill="none" fill-rule="evenodd">
        <g id="icon_delete">
            <circle id="Oval-2" fill="#FF413D" cx="20" cy="20" r="20"></circle>
            <rect id="Rectangle-2" fill="#D8D8D8" opacity="0" x="10" y="10" width="20" height="20"></rect>
            <path d="M28,17 L28,25.9999798 C28,28.2091299 26.2111696,30 24.0037973,30 L15.9962027,30 C13.7891609,30 12,28.2055487 12,25.9999798 L12,17 L10.9918031,17 C10.4440454,17 10,16.5561352 10,16 C10,15.4477153 10.4553056,15 10.9918031,15 L29.0081969,15 C29.5559546,15 30,15.4438648 30,16 C30,16.5522847 29.5446944,17 29.0081969,17 L28,17 Z M15,19.9970301 L15,26.0029699 C15,26.5469637 15.4477153,27 16,27 C16.5561352,27 17,26.5536144 17,26.0029699 L17,19.9970301 C17,19.4530363 16.5522847,19 16,19 C15.4438648,19 15,19.4463856 15,19.9970301 Z M19,19.9970301 L19,26.0029699 C19,26.5469637 19.4477153,27 20,27 C20.5561352,27 21,26.5536144 21,26.0029699 L21,19.9970301 C21,19.4530363 20.5522847,19 20,19 C19.4438648,19 19,19.4463856 19,19.9970301 Z M23,19.9970301 L23,26.0029699 C23,26.5469637 23.4477153,27 24,27 C24.5561352,27 25,26.5536144 25,26.0029699 L25,19.9970301 C25,19.4530363 24.5522847,19 24,19 C23.4438648,19 23,19.4463856 23,19.9970301 Z M17,13 C17,12.4477153 17.4509752,12 17.990778,12 L22.009222,12 C22.5564136,12 23,12.4438648 23,13 C23,13.5522847 22.5490248,14 22.009222,14 L17.990778,14 C17.4435864,14 17,13.5561352 17,13 Z" id="Combined-Shape" fill="#FFFFFF"></path>
        </g>
    </g>
</svg>