<?xml version="1.0" encoding="UTF-8"?>
<svg width="40px" height="40px" viewBox="0 0 40 40" version="1.1" xmlns="http://www.w3.org/2000/svg" xmlns:xlink="http://www.w3.org/1999/xlink">
    <!-- Generator: Sketch 43.1 (39012) - http://www.bohemiancoding.com/sketch -->
    <title>icon_notice_system</title>
    <desc>Created with Sketch.</desc>
    <defs>
        <linearGradient x1="12.5001601%" y1="15.8345916%" x2="84.4726562%" y2="85.3552246%" id="linearGradient-1">
            <stop stop-color="#FFE96E" offset="0%"></stop>
            <stop stop-color="#FF5D49" offset="100%"></stop>
        </linearGradient>
    </defs>
    <g id="Symbols" stroke="none" stroke-width="1" fill="none" fill-rule="evenodd">
        <g id="icon_notice_system">
            <circle id="Oval-2" fill="url(#linearGradient-1)" cx="20" cy="20" r="20"></circle>
            <rect id="Rectangle-2" fill="#D8D8D8" opacity="0" x="10" y="10" width="20" height="20"></rect>
            <path d="M12.252035,22 L11.9907951,22 C10.8913093,22 10,21.1122704 10,20 C10,18.8954305 10.8982124,18 11.9907951,18 L12.252035,18 C12.4409643,17.265958 12.7314564,16.5726888 13.1076382,15.9360653 L12.9224234,15.7508505 C12.1449695,14.9733966 12.1424383,13.7154261 12.9289322,12.9289322 C13.7099808,12.1478836 14.9782778,12.1498507 15.7508505,12.9224234 L15.9360653,13.1076382 C16.5726888,12.7314564 17.265958,12.4409643 18,12.252035 L18,11.9907951 C18,10.8913093 18.8877296,10 20,10 C21.1045695,10 22,10.8982124 22,11.9907951 L22,12.252035 C22.734042,12.4409643 23.4273112,12.7314564 24.0639347,13.1076382 L24.2491495,12.9224234 C25.0266034,12.1449695 26.2845739,12.1424383 27.0710678,12.9289322 C27.8521164,13.7099808 27.8501493,14.9782778 27.0775766,15.7508505 L26.8923618,15.9360653 C27.2685436,16.5726888 27.5590357,17.265958 27.747965,18 L28.0092049,18 C29.1086907,18 30,18.8877296 30,20 C30,21.1045695 29.1017876,22 28.0092049,22 L27.747965,22 C27.5590357,22.734042 27.2685436,23.4273112 26.8923618,24.0639347 L27.0775766,24.2491495 C27.8550305,25.0266034 27.8575617,26.2845739 27.0710678,27.0710678 C26.2900192,27.8521164 25.0217222,27.8501493 24.2491495,27.0775766 L24.0639347,26.8923618 C23.4273112,27.2685436 22.734042,27.5590357 22,27.747965 L22,28.0092049 C22,29.1086907 21.1122704,30 20,30 C18.8954305,30 18,29.1017876 18,28.0092049 L18,27.747965 C17.265958,27.5590357 16.5726888,27.2685436 15.9360653,26.8923618 L15.7508505,27.0775766 C14.9733966,27.8550305 13.7154261,27.8575617 12.9289322,27.0710678 C12.1478836,26.2900192 12.1498507,25.0217222 12.9224234,24.2491495 L13.1076382,24.0639347 C12.7314564,23.4273112 12.4409643,22.734042 12.252035,22 Z M20,26 C23.3137085,26 26,23.3137085 26,20 C26,16.6862915 23.3137085,14 20,14 C16.6862915,14 14,16.6862915 14,20 C14,23.3137085 16.6862915,26 20,26 Z M20,24 C17.790861,24 16,22.209139 16,20 C16,17.790861 17.790861,16 20,16 C22.209139,16 24,17.790861 24,20 C24,22.209139 22.209139,24 20,24 Z" id="Combined-Shape" fill="#FFFFFF"></path>
        </g>
    </g>
</svg>