<?xml version="1.0" encoding="UTF-8"?>
<svg width="40px" height="40px" viewBox="0 0 40 40" version="1.1" xmlns="http://www.w3.org/2000/svg" xmlns:xlink="http://www.w3.org/1999/xlink">
    <!-- Generator: Sketch 43.1 (39012) - http://www.bohemiancoding.com/sketch -->
    <title>icon_notice_management</title>
    <desc>Created with Sketch.</desc>
    <defs>
        <linearGradient x1="12.5001601%" y1="15.8345916%" x2="84.4726562%" y2="85.3552246%" id="linearGradient-1">
            <stop stop-color="#E5FF75" offset="0%"></stop>
            <stop stop-color="#8BE035" offset="100%"></stop>
        </linearGradient>
    </defs>
    <g id="Symbols" stroke="none" stroke-width="1" fill="none" fill-rule="evenodd">
        <g id="icon_notice_management">
            <circle id="Oval-2" fill="url(#linearGradient-1)" cx="20" cy="20" r="20"></circle>
            <g transform="translate(10.000000, 10.000000)">
                <rect id="Rectangle-2" fill="#D8D8D8" opacity="0" x="0" y="0" width="20" height="20"></rect>
                <path d="M18,17 L20,17 L20,19 L0,19 L0,17 L2,17 L2,7.99668583 C2,5.23709245 4.24419519,3 7,3 L12,3 L12,13 L12,9 L18,9 L18,17 Z M14,11.990778 L14,16.009222 C14,16.5490248 14.4477153,17 15,17 C15.5561352,17 16,16.5564136 16,16.009222 L16,11.990778 C16,11.4509752 15.5522847,11 15,11 C14.4438648,11 14,11.4435864 14,11.990778 Z M4,8 C4,8.55613518 4.44358641,9 4.99077797,9 L9.00922203,9 C9.54902482,9 10,8.55228475 10,8 C10,7.44386482 9.55641359,7 9.00922203,7 L4.99077797,7 C4.45097518,7 4,7.44771525 4,8 Z M4,12 C4,12.5561352 4.44358641,13 4.99077797,13 L9.00922203,13 C9.54902482,13 10,12.5522847 10,12 C10,11.4438648 9.55641359,11 9.00922203,11 L4.99077797,11 C4.45097518,11 4,11.4477153 4,12 Z M4,16 C4,16.5561352 4.44358641,17 4.99077797,17 L9.00922203,17 C9.54902482,17 10,16.5522847 10,16 C10,15.4438648 9.55641359,15 9.00922203,15 L4.99077797,15 C4.45097518,15 4,15.4477153 4,16 Z" id="Combined-Shape" fill="#FFFFFF"></path>
            </g>
        </g>
    </g>
</svg>